<?xml version="1.0" encoding="UTF-8"?>
<svg version="1.1" xmlns="http://www.w3.org/2000/svg" width="512" height="512">
<path d="M0 0 C1.29182693 0.00319748 2.58365387 0.00639496 3.91462708 0.00968933 C18.672397 0.08018012 33.41334497 0.63791098 48.15600586 1.27319336 C52.0569437 1.4407532 55.95836263 1.5905313 59.86016369 1.73640156 C62.9277022 1.85383608 65.99467519 1.98286527 69.06160927 2.11507225 C70.50092451 2.17533898 71.94041352 2.23161776 73.38005638 2.28347206 C88.35851942 2.83226257 101.31839071 5.19256222 111.96484375 16.46875 C119.9117508 25.98898411 121.35327667 36.04028679 120.58984375 48.15625 C118.84269908 58.59469909 112.73890323 67.53743502 104.58984375 74.15625 C98.0865494 78.10058579 91.64496015 80.16417105 84.21484375 81.53125 C82.72754761 81.8247937 82.72754761 81.8247937 81.21020508 82.12426758 C77.67309151 82.81818925 74.13194227 83.48824022 70.58984375 84.15625 C64.96874387 85.22283348 59.34915812 86.2971518 53.73040771 87.3760376 C51.30081397 87.83927506 48.86957255 88.29294822 46.43798828 88.74560547 C44.92996209 89.03195846 43.42198454 89.31856778 41.9140625 89.60546875 C41.21821548 89.73238602 40.52236847 89.85930328 39.80543518 89.99006653 C36.4791944 90.63087375 34.45580336 91.24561026 31.58984375 93.15625 C32.03121571 98.89408544 34.41036994 103.45142116 37.58984375 108.15625 C39.9244865 109.32357137 41.19065539 109.25144875 43.78564453 109.19384766 C44.65480499 109.17697906 45.52396545 109.16011047 46.41946411 109.14273071 C47.36514252 109.1188327 48.31082092 109.09493469 49.28515625 109.0703125 C50.26539764 109.04907318 51.24563904 109.02783386 52.25558472 109.00595093 C54.3421589 108.95958353 56.4286773 108.91064723 58.51513672 108.859375 C61.65321333 108.78275479 64.7913809 108.71488292 67.9296875 108.6484375 C105.50500479 107.81185595 128.25234887 101.45849686 157.55078125 77.4453125 C161.17071605 74.48510953 164.8376568 71.59122582 168.52734375 68.71875 C173.73957423 64.65170419 178.86789465 60.49177317 183.96484375 56.28125 C185.03025391 55.40146484 185.03025391 55.40146484 186.1171875 54.50390625 C187.55592412 53.3153847 188.99456328 52.12674516 190.43310547 50.93798828 C223.14778485 23.91153026 223.14778485 23.91153026 244.58984375 25.15625 C254.84463499 26.72395301 263.57833643 32.91352824 270.0546875 40.875 C276.24844447 50.07895437 278.61598137 60.30874037 277.1796875 71.29296875 C273.63267116 87.88111106 262.11066654 96.60368481 249.4765625 106.8046875 C246.28973077 109.40072634 243.15635774 112.05364913 240.02734375 114.71875 C235.47723427 118.58893514 230.8615044 122.35585769 226.1796875 126.06640625 C222.55853406 128.98845315 219.02029806 132.00446486 215.4765625 135.01953125 C211.15725483 138.68992885 206.78085826 142.28443275 202.37890625 145.85546875 C199.90454814 147.89664092 197.47903164 149.9850172 195.05932617 152.09033203 C168.6125618 174.95335938 137.53609785 190.73657669 102.58984375 195.15625 C101.77515625 195.26710938 100.96046875 195.37796875 100.12109375 195.4921875 C83.94770498 197.33914856 67.3348194 196.08501366 51.13362885 195.23027039 C47.84919088 195.05723004 44.56446579 194.89094591 41.27960205 194.72619629 C33.12566447 194.31603709 24.97224671 193.89595258 16.81890869 193.47406006 C9.90049997 193.11623829 2.98187233 192.7633981 -3.93712616 192.41716003 C-7.12503898 192.25573423 -10.31252871 192.08732401 -13.50006104 191.9185791 C-23.82384982 191.39009898 -34.12406917 191.05750246 -44.46240234 191.04418945 C-45.45243382 191.0424472 -46.44246529 191.04070496 -47.46249771 191.03890991 C-54.7029472 191.06603198 -61.64198965 191.60176524 -68.78515625 192.84375 C-69.88021484 193.01874023 -70.97527344 193.19373047 -72.10351562 193.37402344 C-83.48698973 195.23447143 -94.81070042 197.45457406 -106.11132812 199.76074219 C-108.41015625 200.15625 -108.41015625 200.15625 -111.41015625 200.15625 C-111.35214844 201.33960938 -111.29414062 202.52296875 -111.234375 203.7421875 C-110.8731156 214.15152457 -111.00773368 221.98718653 -118.171875 230.16796875 C-126.91120368 238.62366811 -136.6587933 239.76333758 -148.37890625 239.6875 C-150.35304504 239.69324036 -150.35304504 239.69324036 -152.36706543 239.69909668 C-155.13731935 239.70495424 -157.90705322 239.69655189 -160.67724609 239.67773438 C-164.20082766 239.6549458 -167.72318998 239.66808936 -171.24672699 239.69202423 C-174.64504709 239.7100808 -178.0430517 239.69738166 -181.44140625 239.6875 C-182.69272339 239.69559692 -183.94404053 239.70369385 -185.23327637 239.71203613 C-196.17004054 239.59598341 -205.40056487 236.89826038 -213.41015625 229.15625 C-221.11659691 219.70458486 -220.70572973 208.99168902 -220.68481445 197.38378906 C-220.68916677 195.78633385 -220.69435165 194.18888072 -220.70030212 192.59143066 C-220.71364988 188.26889879 -220.71427533 183.94645459 -220.71173882 179.62390614 C-220.71066588 176.00599081 -220.71556092 172.38809298 -220.72034425 168.77018142 C-220.73142561 160.22795908 -220.73188507 151.68578073 -220.72583008 143.14355469 C-220.71979576 134.35489193 -220.73209067 125.56638948 -220.75340015 116.77775407 C-220.77106395 109.21227703 -220.77700985 101.64685079 -220.7737624 94.0813539 C-220.77195644 89.57173155 -220.77451642 85.06222347 -220.78847694 80.55261993 C-220.80112808 76.30734005 -220.79904293 72.0623083 -220.78606606 67.81703186 C-220.7837162 66.26755944 -220.78637721 64.71806916 -220.79468918 63.16861725 C-220.86254029 49.52607425 -219.75801249 37.68904577 -210.41015625 27.15625 C-201.72747175 18.63877514 -190.90417606 16.53572948 -179.12890625 16.625 C-177.9941687 16.6211731 -176.85943115 16.61734619 -175.69030762 16.61340332 C-173.30703842 16.61069869 -170.9237388 16.61795741 -168.54052734 16.63476562 C-164.91956583 16.65619431 -161.30058826 16.63491234 -157.6796875 16.609375 C-155.35025609 16.61201853 -153.02082591 16.61714403 -150.69140625 16.625 C-149.0893634 16.61285461 -149.0893634 16.61285461 -147.45495605 16.60046387 C-137.88926767 16.71815955 -129.00863363 18.7476135 -121.97265625 25.59375 C-121.19019531 26.33496094 -120.40773438 27.07617188 -119.6015625 27.83984375 C-117.38790309 30.1797725 -115.40751295 32.6312205 -113.41015625 35.15625 C-112.34917725 34.65810791 -111.28819824 34.15996582 -110.19506836 33.64672852 C-38.0832032 -0.1588523 -38.0832032 -0.1588523 0 0 Z " fill="#224099" transform="translate(227.41015625,272.84375)"/>
<path d="M0 0 C0.72161316 0.00021149 1.44322632 0.00042297 2.18670654 0.00064087 C14.14490744 0.03549432 25.40956408 1.06771617 36.9375 4.375 C37.60297852 4.55691895 38.26845703 4.73883789 38.95410156 4.92626953 C60.13952937 10.83222213 78.75492418 22.7529632 94.9375 37.375 C95.73800781 38.09171875 96.53851563 38.8084375 97.36328125 39.546875 C121.22560949 62.09529174 135.57425204 96.24084399 137.04711914 128.7980957 C137.97551928 168.36969503 125.64379818 204.0884353 98.38989258 232.96728516 C73.80544067 258.21618172 39.20715652 273.12473357 3.98486328 273.61645508 C-26.7136296 273.70817842 -56.24128303 266.1576224 -81.0625 247.375 C-81.96742188 246.69050781 -82.87234375 246.00601563 -83.8046875 245.30078125 C-109.73527942 224.842793 -126.56514155 197.46514291 -134.0625 165.375 C-134.27777344 164.50101563 -134.49304688 163.62703125 -134.71484375 162.7265625 C-142.30260683 127.61238883 -133.17101638 91.63261076 -115.0625 61.375 C-112.06499479 56.76381807 -108.65511641 52.53598472 -105.0625 48.375 C-104.60649414 47.83681641 -104.15048828 47.29863281 -103.68066406 46.74414062 C-86.59201862 26.73506092 -63.93374346 12.65713675 -38.8125 5 C-37.64448853 4.64204346 -37.64448853 4.64204346 -36.45288086 4.27685547 C-24.45149356 0.81859552 -12.43200433 -0.0338186 0 0 Z " fill="#FCD941" transform="translate(338.0625,-0.375)"/>
<path d="M0 0 C1.1133371 0.00163651 2.22667419 0.00327301 3.37374878 0.00495911 C17.32539296 0.07509029 31.26099906 0.55626655 45.19970703 1.12817383 C48.26513453 1.25282497 51.33060732 1.36327431 54.39697266 1.4621582 C58.17565668 1.58403856 61.95280704 1.72885325 65.73000717 1.89016151 C67.14655246 1.94701334 68.56343315 1.99612506 69.9805336 2.0368557 C79.83156135 2.32870432 86.18407066 3.45242444 93.0625 10.68359375 C95.86842332 15.06083413 96.14315086 18.93958512 95.625 24.12109375 C93.16364618 29.79706053 90.02689356 33.04528247 84.625 36.12109375 C82.0603063 36.88089518 79.67722605 37.45579531 77.0625 37.93359375 C76.28600098 38.08755615 75.50950195 38.24151855 74.70947266 38.40014648 C71.6846646 38.99275852 68.65549889 39.55826859 65.625 40.12109375 C64.1717059 40.39124194 62.7184186 40.66142672 61.26513672 40.93164062 C60.48539993 41.0765242 59.70566315 41.22140778 58.90229797 41.37068176 C56.4372963 41.8293445 53.97266525 42.28996269 51.50805664 42.75073242 C48.21071185 43.36706642 44.91165142 43.97271816 41.61108398 44.5715332 C23.76223322 47.43025298 23.76223322 47.43025298 10.015625 58.27734375 C5.72650438 65.69896819 5.22785076 73.51605974 7.2890625 81.78515625 C11.20581605 92.51365511 17.50771639 102.17227061 27.58203125 107.76171875 C32.80715939 109.90620702 38.25729505 109.47734848 43.8125 109.37109375 C44.99287842 109.35868652 46.17325684 109.3462793 47.3894043 109.33349609 C51.13535726 109.28450998 54.87973397 109.2075155 58.625 109.12109375 C59.82672852 109.09499023 61.02845703 109.06888672 62.26660156 109.04199219 C95.64304491 108.25099503 127.23496274 106.90177051 153.90917969 84.55419922 C155.80105598 82.97404643 157.71463465 81.42310699 159.6328125 79.875 C162.40102359 77.63934926 165.16285191 75.39629984 167.91796875 73.14453125 C170.8062421 70.78542384 173.70811114 68.44480017 176.625 66.12109375 C180.98066024 62.64833761 185.30405042 59.13684793 189.625 55.62109375 C194.70449953 51.48814302 199.79386808 47.3696288 204.921875 43.296875 C207.15590841 41.49867181 209.36991497 39.68117772 211.578125 37.8515625 C212.28582031 37.26826172 212.99351562 36.68496094 213.72265625 36.08398438 C215.12499813 34.9272432 216.52363818 33.76599489 217.91796875 32.59960938 C223.9959356 27.59882675 229.03346826 24.41558504 237.09765625 24.71875 C242.39222294 25.56162538 245.9175449 28.01929783 249.265625 32.140625 C252.2418882 36.80943348 253.31546622 40.53401873 252.24609375 46.00390625 C250.04209144 53.5169204 245.7821344 56.948131 239.75390625 61.66796875 C236.47160613 64.2413576 233.29493877 66.91207434 230.125 69.62109375 C223.47644732 75.27172698 216.72373586 80.78937279 209.953125 86.29296875 C204.96902207 90.35515669 200.02567404 94.45901564 195.125 98.62109375 C190.33139647 102.69085684 185.50804506 106.71798904 180.62109375 110.67578125 C178.36581091 112.51646842 176.13361203 114.37551816 173.91015625 116.25390625 C165.27946112 123.4927245 156.58107287 129.83098627 146.625 135.12109375 C145.96951172 135.47010742 145.31402344 135.81912109 144.63867188 136.17871094 C112.86638957 152.76818462 81.15220299 153.15564229 46.14526367 150.97607422 C31.12350599 150.04570596 16.09209153 149.42473347 1.05419922 148.81884766 C-0.85189801 148.74145645 -2.75798547 148.66382437 -4.6640625 148.5859375 C-5.58533432 148.54834824 -6.50660614 148.51075897 -7.45579529 148.47203064 C-13.12205402 148.23432034 -18.78120068 147.93437053 -24.44140625 147.58203125 C-51.26229993 145.9345066 -76.61565221 148.5039965 -102.89428711 153.90136719 C-103.6806958 154.0615332 -104.46710449 154.22169922 -105.27734375 154.38671875 C-106.29042603 154.59989746 -106.29042603 154.59989746 -107.32397461 154.81738281 C-109.375 155.12109375 -109.375 155.12109375 -114.375 155.12109375 C-114.375 116.51109375 -114.375 77.90109375 -114.375 38.12109375 C-59.32165849 10.594423 -59.32165849 10.594423 -44.375 6.12109375 C-43.70098145 5.91742188 -43.02696289 5.71375 -42.33251953 5.50390625 C-28.36800549 1.40081031 -14.50256849 -0.02592002 0 0 Z " fill="#EBB188" transform="translate(230.375,294.87890625)"/>
<path d="M0 0 C0.72161316 0.00021149 1.44322632 0.00042297 2.18670654 0.00064087 C14.14490744 0.03549432 25.40956408 1.06771617 36.9375 4.375 C37.60297852 4.55691895 38.26845703 4.73883789 38.95410156 4.92626953 C60.13952937 10.83222213 78.75492418 22.7529632 94.9375 37.375 C95.73800781 38.09171875 96.53851563 38.8084375 97.36328125 39.546875 C121.22560949 62.09529174 135.57425204 96.24084399 137.04711914 128.7980957 C137.97551928 168.36969503 125.64379818 204.0884353 98.38989258 232.96728516 C73.80544067 258.21618172 39.20715652 273.12473357 3.98486328 273.61645508 C-26.7136296 273.70817842 -56.24128303 266.1576224 -81.0625 247.375 C-81.96742188 246.69050781 -82.87234375 246.00601563 -83.8046875 245.30078125 C-109.73527942 224.842793 -126.56514155 197.46514291 -134.0625 165.375 C-134.27777344 164.50101563 -134.49304688 163.62703125 -134.71484375 162.7265625 C-142.30260683 127.61238883 -133.17101638 91.63261076 -115.0625 61.375 C-112.06499479 56.76381807 -108.65511641 52.53598472 -105.0625 48.375 C-104.60649414 47.83681641 -104.15048828 47.29863281 -103.68066406 46.74414062 C-86.59201862 26.73506092 -63.93374346 12.65713675 -38.8125 5 C-37.64448853 4.64204346 -37.64448853 4.64204346 -36.45288086 4.27685547 C-24.45149356 0.81859552 -12.43200433 -0.0338186 0 0 Z M-85.0625 59.375 C-99.5374604 75.6385331 -108.45425378 95.22433145 -113.0625 116.375 C-113.239021 117.14279785 -113.41554199 117.9105957 -113.59741211 118.70166016 C-116.2396288 133.88920489 -115.03585827 151.49800739 -111.0625 166.375 C-110.85753906 167.23738281 -110.65257812 168.09976563 -110.44140625 168.98828125 C-105.27640013 188.58963987 -94.22197225 205.17541593 -80.0625 219.375 C-79.23492187 220.22578125 -78.40734375 221.0765625 -77.5546875 221.953125 C-54.70322035 244.17565269 -25.13273548 251.95012745 5.91995239 251.74856567 C16.46776718 251.59821896 25.99502304 249.85693541 35.9375 246.375 C36.61651367 246.14506348 37.29552734 245.91512695 37.99511719 245.67822266 C52.36107113 240.71511925 64.48859093 233.32556191 75.9375 223.375 C77.01895156 222.51845208 78.10192668 221.66381802 79.1875 220.8125 C96.88654568 205.12470951 107.42856876 183.01254098 112.9375 160.375 C113.18242187 159.42367187 113.42734375 158.47234375 113.6796875 157.4921875 C116.64440682 143.56206797 116.56762079 126.15035309 112.9375 112.375 C112.63070312 111.18777344 112.32390625 110.00054687 112.0078125 108.77734375 C103.66668277 78.66789986 84.96128895 53.23089111 57.9375 37.375 C47.15337917 31.36092376 35.90545006 27.30970582 23.9375 24.375 C22.48923828 24.00568359 22.48923828 24.00568359 21.01171875 23.62890625 C-17.46113712 15.555731 -58.54734312 31.29574679 -85.0625 59.375 Z " fill="#234098" transform="translate(338.0625,-0.375)"/>
<path d="M0 0 C0.94447998 -0.00953201 1.88895996 -0.01906403 2.86206055 -0.02888489 C4.37473511 -0.02751778 4.37473511 -0.02751778 5.91796875 -0.02612305 C6.9644458 -0.03040817 8.01092285 -0.0346933 9.08911133 -0.03910828 C11.29800697 -0.04484216 13.5069215 -0.04535878 15.71582031 -0.04101562 C19.09342628 -0.03785307 22.47015833 -0.06133623 25.84765625 -0.08666992 C27.99609265 -0.08894275 30.1445314 -0.08964649 32.29296875 -0.08862305 C33.80564331 -0.10243767 33.80564331 -0.10243767 35.34887695 -0.11653137 C44.07715267 -0.0589689 44.07715267 -0.0589689 48.10546875 3.2746582 C48.63396455 3.667269 49.16246035 4.0598798 49.70697117 4.46438789 C51.82325149 7.20378443 51.48629513 9.47712736 51.4931488 12.90377808 C51.49853434 13.58068321 51.50391988 14.25758835 51.50946862 14.95500576 C51.52380149 17.22824423 51.51663167 19.50090474 51.50952148 21.77416992 C51.51522236 23.4019518 51.52218552 25.02972968 51.53031921 26.65750122 C51.54829884 31.08319538 51.54707305 35.50869178 51.54137683 39.93441153 C51.53829135 43.62730314 51.54437039 47.32015641 51.55041558 51.01304257 C51.56447548 59.7251173 51.56288786 68.43709402 51.55151367 77.14916992 C51.54003554 86.13957088 51.55409962 95.12967343 51.58091015 104.12003505 C51.60305843 111.83563016 51.60970636 119.55113154 51.60383373 127.26675618 C51.6004603 131.8763036 51.60290456 136.48565979 51.62008476 141.09518051 C51.63553758 145.43072704 51.63161704 149.76583137 51.61277962 154.10136032 C51.60908885 155.69246841 51.61221645 157.28360913 51.62266541 158.87468719 C51.63584491 161.04749308 51.6243571 163.21882851 51.60667419 165.39157104 C51.60636027 167.21502454 51.60636027 167.21502454 51.60604 169.07531548 C51.00867305 172.8933166 49.78638626 174.54427252 47.10546875 177.2746582 C44.63185483 178.51146516 42.95143099 178.42153587 40.18432617 178.45166016 C38.6471418 178.47091301 38.6471418 178.47091301 37.0789032 178.49055481 C35.96747452 178.49794174 34.85604584 178.50532867 33.7109375 178.51293945 C32.57143143 178.5210112 31.43192535 178.52908295 30.25788879 178.53739929 C27.84275844 178.55124807 25.42760845 178.56196666 23.01245117 178.56982422 C19.31847051 178.58703936 15.62538404 178.63092014 11.93164062 178.67504883 C9.58724618 178.68517526 7.24284411 178.69369152 4.8984375 178.70043945 C3.24040352 178.72670158 3.24040352 178.72670158 1.5488739 178.75349426 C-6.09363053 178.73187594 -6.09363053 178.73187594 -10.0065918 176.49804688 C-13.61025511 172.25408441 -14.14618023 169.25307642 -14.16195679 163.68386841 C-14.1664879 163.02314862 -14.17101901 162.36242883 -14.17568743 161.68168724 C-14.18834059 159.4692795 -14.18671051 157.25711764 -14.18505859 155.04467773 C-14.19104328 153.4577808 -14.19784869 151.87088677 -14.20541382 150.28399658 C-14.22308704 145.97403512 -14.22776975 141.66415307 -14.22904539 137.35415888 C-14.23094469 133.75575988 -14.23830256 130.15737938 -14.24538958 126.5589875 C-14.26167611 118.06885648 -14.26655829 109.57876789 -14.26513672 101.08862305 C-14.26393515 92.33169408 -14.28503944 83.57501152 -14.31662405 74.81814492 C-14.34277862 67.29870034 -14.35350436 59.77933628 -14.3522259 52.25984657 C-14.35171603 47.76931528 -14.35741294 43.27900297 -14.378582 38.788517 C-14.39795071 34.56459519 -14.39809841 30.34110155 -14.38354874 26.11716461 C-14.38145783 24.56839497 -14.38617836 23.01959864 -14.39826965 21.47087479 C-14.41372974 19.35321951 -14.40441136 17.23703927 -14.38900757 15.11941528 C-14.3900971 13.93549761 -14.39118664 12.75157993 -14.39230919 11.53178596 C-13.78593177 7.56405546 -12.38191767 5.38946373 -9.89453125 2.2746582 C-6.57206196 0.42883502 -3.76513573 0.02098827 0 0 Z " fill="#00ABE9" transform="translate(42.89453125,311.725341796875)"/>
<path d="M0 0 C0.86193466 -0.00335861 1.72386932 -0.00671722 2.61192322 -0.01017761 C5.47127714 -0.01970376 8.33057259 -0.02163161 11.18994141 -0.02270508 C13.17290267 -0.02591669 15.1558637 -0.02928068 17.13882446 -0.03279114 C21.30007476 -0.0387867 25.46130428 -0.04063062 29.62255859 -0.04003906 C34.95813582 -0.03993746 40.29357992 -0.05358606 45.6291256 -0.07081127 C49.72631443 -0.08192342 53.82347101 -0.08395851 57.92067337 -0.08342934 C59.88787927 -0.08461078 61.85508596 -0.08904172 63.82227707 -0.0967617 C66.5730194 -0.10654497 69.32347188 -0.10369003 72.07421875 -0.09765625 C72.88891129 -0.10327576 73.70360382 -0.10889526 74.54298401 -0.11468506 C81.52311992 -0.07572385 81.52311992 -0.07572385 84.66650391 2.14526367 C87.3799409 5.23296783 87.91525653 7.64748411 87.72900391 11.64526367 C87.49393772 15.06879166 86.59761463 16.22712035 84.34228516 18.90698242 C79.74912471 22.45646138 74.31898881 21.67899921 68.79150391 21.45776367 C67.72158203 21.43520508 66.65166016 21.41264648 65.54931641 21.3894043 C62.92025984 21.33072 60.29411809 21.24867547 57.66650391 21.14526367 C58.02744141 21.8697168 58.38837891 22.59416992 58.76025391 23.34057617 C59.45634766 24.79077148 59.45634766 24.79077148 60.16650391 26.27026367 C60.86259766 27.69725586 60.86259766 27.69725586 61.57275391 29.15307617 C62.74398506 32.35722998 62.86726515 34.7624368 62.66650391 38.14526367 C63.98005859 38.08725586 65.29361328 38.02924805 66.64697266 37.96948242 C68.38261414 37.92257319 70.11829414 37.87707428 71.85400391 37.83276367 C72.71832031 37.79086914 73.58263672 37.74897461 74.47314453 37.70581055 C78.97120801 37.61964075 81.00769279 37.65516219 84.71728516 40.41479492 C87.54724816 44.37901163 87.66650391 46.28735896 87.66650391 51.14526367 C85.96385792 55.40187863 83.76434695 57.2132643 79.66650391 59.14526367 C77.74217691 59.17338536 75.81537855 59.19471377 73.89306641 59.10229492 C70.20525212 58.95834678 67.28570978 59.24971375 63.66650391 60.14526367 C61.01092337 63.15849815 59.71775291 66.02467001 58.15087891 69.71166992 C54.17467566 78.90925585 46.75169129 84.41064119 37.66650391 88.14526367 C33.70138841 89.35823064 29.73238063 90.33634579 25.66650391 91.14526367 C25.44322102 93.42649085 25.44322102 93.42649085 27.79150391 95.50073242 C28.74405052 96.45058156 29.70280327 97.39423315 30.66650391 98.33276367 C31.42036377 99.07695557 31.42036377 99.07695557 32.18945312 99.83618164 C35.58419951 103.16166957 39.08997917 106.3187589 42.70556641 109.40307617 C45.7520711 112.10973174 48.56856232 115.03697708 51.42431641 117.94213867 C53.55554702 120.03623984 55.75734678 121.97088221 58.04150391 123.89526367 C61.91387144 127.25080127 64.32769831 129.87042607 65.10400391 135.08276367 C64.45842246 139.60183383 62.50241811 142.75250118 58.85400391 145.52026367 C55.43149819 146.49812245 53.23556958 146.68062352 49.66650391 146.14526367 C46.62747121 144.22844259 44.22036462 141.65529838 41.66650391 139.14526367 C40.4705976 138.02972282 39.27106542 136.91806227 38.06884766 135.80932617 C32.9518678 131.08371928 27.84822499 126.35829138 22.93994141 121.41479492 C20.65456224 119.11369876 18.34211896 116.91648982 15.85400391 114.83276367 C12.64316635 112.06908338 9.64383225 109.15906771 6.66650391 106.14526367 C3.70953367 103.15212255 0.73332899 100.26147816 -2.45849609 97.52026367 C-3.09142578 96.96854492 -3.72435547 96.41682617 -4.37646484 95.84838867 C-5.7654928 94.63957392 -7.16507937 93.44284429 -8.57177734 92.25463867 C-12.19575201 88.98469351 -14.77105428 86.43974784 -15.64599609 81.52026367 C-15.75163741 78.12800348 -15.13575043 76.29187239 -13.02099609 73.64526367 C-8.98486796 69.89072587 -6.33069347 70.01236234 -1.05224609 70.00463867 C0.44516468 69.98628866 1.94256088 69.96671637 3.43994141 69.94604492 C5.79207579 69.91726518 8.14328453 69.89526854 10.49560547 69.89477539 C23.86231779 69.93623589 23.86231779 69.93623589 35.66650391 64.14526367 C36.68586237 62.8266712 37.68846151 61.49478612 38.66650391 60.14526367 C38.08878738 60.14161804 37.51107086 60.13797241 36.91584778 60.13421631 C30.89702278 60.09237091 24.87895891 60.02301125 18.8605957 59.93774414 C16.61523047 59.90953726 14.369766 59.88832135 12.12426758 59.87426758 C8.89434002 59.85283475 5.66560535 59.80618096 2.43603516 59.75463867 C1.43377396 59.75341003 0.43151276 59.7521814 -0.60112 59.75091553 C-5.01769711 59.6583267 -7.61944358 59.58442194 -11.4440918 57.23217773 C-14.16534796 54.22645378 -14.57386108 52.31728043 -14.77099609 48.33276367 C-14.83158203 47.48069336 -14.89216797 46.62862305 -14.95458984 45.75073242 C-14.20598464 42.61035714 -12.83577739 41.18554522 -10.3318634 39.20005798 C-6.25369204 37.04748476 -1.74853254 37.5429912 2.75244141 37.65698242 C4.33782211 37.66759453 4.33782211 37.66759453 5.95523071 37.67842102 C9.31805357 37.70632252 12.67918762 37.76905612 16.04150391 37.83276367 C18.32663604 37.85785189 20.61179438 37.88066414 22.89697266 37.90112305 C28.48738881 37.95613511 34.07682569 38.03971947 39.66650391 38.14526367 C39.03899068 36.85237632 38.40713445 35.56159623 37.7734375 34.27172852 C37.24633682 33.19319107 37.24633682 33.19319107 36.70858765 32.09286499 C35.51570112 29.86342097 34.25310307 28.3634874 32.29150391 26.77026367 C31.74751953 26.3087793 31.20353516 25.84729492 30.64306641 25.37182617 C25.80386945 22.36884624 21.0720542 21.89883464 15.47509766 21.87182617 C14.1046466 21.85154953 12.73420393 21.83069899 11.36376953 21.80932617 C9.22868686 21.78670408 7.09393746 21.77023618 4.95874023 21.7644043 C2.8802661 21.75485797 0.80324426 21.72108142 -1.27490234 21.68432617 C-2.50926025 21.6761084 -3.74361816 21.66789062 -5.01538086 21.65942383 C-9.54475767 20.95757205 -11.97622526 18.93439341 -14.70849609 15.33276367 C-15.66970224 11.96854215 -15.16194556 9.51823648 -14.33349609 6.14526367 C-10.16556524 -0.03940792 -7.06914974 -0.00391289 0 0 Z " fill="#234198" transform="translate(302.33349609375,68.854736328125)"/>
</svg>
